<svg width="30" height="30" viewBox="0 0 30 30" fill="none" xmlns="http://www.w3.org/2000/svg">
<path d="M3.76312 14.04C4.29355 14.0483 4.81124 13.8772 5.23219 13.5544C5.62144 13.2284 5.8877 12.7792 5.98688 12.2813C6.14277 11.3699 6.20996 10.4456 6.1875 9.52125C6.195 8.21813 6.21844 7.35969 6.25781 6.94594C6.29952 6.40092 6.43197 5.86669 6.64969 5.36531C6.81559 5.00078 7.05682 4.67551 7.3575 4.41094C7.67456 4.15467 8.04281 3.96927 8.4375 3.86719C8.91392 3.77281 9.3996 3.73349 9.885 3.75H10.5413V5.5875H10.1784C9.60316 5.51431 9.02232 5.67207 8.56312 6.02625C8.2232 6.62027 8.0835 7.30793 8.16469 7.9875C8.19604 9.28046 8.15316 10.5741 8.03625 11.8622C7.95113 12.5535 7.70448 13.2151 7.31625 13.7934C6.88658 14.3162 6.33912 14.7297 5.71875 15C6.51826 15.3065 7.18103 15.8901 7.58625 16.6444C8.04705 17.7939 8.24501 19.0319 8.16563 20.2678C8.16563 21.7897 8.18125 22.6959 8.2125 22.9866C8.22449 23.4021 8.39329 23.7976 8.685 24.0938C9.1368 24.3536 9.65914 24.4642 10.1775 24.4097H10.5403V26.25H9.88406C9.32357 26.2759 8.76253 26.2126 8.22188 26.0625C7.73541 25.8923 7.30571 25.5905 6.98063 25.1906C6.63504 24.7475 6.41458 24.2198 6.34219 23.6625C6.22292 22.6565 6.17124 21.6436 6.1875 20.6306C6.21273 19.6558 6.14555 18.6809 5.98688 17.7187C5.88611 17.2206 5.6202 16.771 5.23219 16.4428C4.81272 16.1166 4.29446 15.9433 3.76312 15.9516V14.04Z" fill="#059669"/>
<path d="M26.2369 15.9478C25.7055 15.9395 25.1873 16.1128 24.7678 16.4391C24.3798 16.7673 24.1139 17.2169 24.0131 17.715C23.8549 18.6781 23.7884 19.654 23.8144 20.6297C23.8294 21.6427 23.7765 22.6556 23.6559 23.6616C23.5835 24.2189 23.3631 24.7465 23.0175 25.1897C22.6924 25.5896 22.2627 25.8914 21.7763 26.0616C21.2356 26.2116 20.6746 26.2749 20.1141 26.2491H19.4578V24.4125H19.8206C20.339 24.467 20.8613 24.3565 21.3131 24.0966C21.6066 23.7996 21.7762 23.4021 21.7875 22.9847C21.8187 22.6959 21.8344 21.7897 21.8344 20.2659C21.755 19.03 21.9529 17.792 22.4138 16.6425C22.8193 15.8889 23.482 15.306 24.2812 15C23.6623 14.7295 23.1162 14.3163 22.6875 13.7944C22.2993 13.216 22.0526 12.5545 21.9675 11.8631C21.8506 10.5751 21.8077 9.2814 21.8391 7.98844C21.9202 7.30887 21.7805 6.62121 21.4406 6.02719C20.9814 5.67301 20.4006 5.51525 19.8253 5.58844H19.4625V3.75H20.1187C20.6029 3.73378 21.0873 3.77309 21.5625 3.86719C21.9563 3.96992 22.3235 4.15563 22.6397 4.41188C22.9404 4.67645 23.1816 5.00172 23.3475 5.36625C23.5652 5.86763 23.6977 6.40186 23.7394 6.94688C23.7781 7.36063 23.8016 8.21907 23.8097 9.52219C23.7864 10.4474 23.853 11.3727 24.0084 12.285C24.1082 12.7819 24.3744 13.23 24.7631 13.5553C25.1841 13.8782 25.7018 14.0493 26.2322 14.0409L26.2369 15.9478Z" fill="#059669"/>
</svg>
